<svg id="chevron" xmlns="http://www.w3.org/2000/svg" viewBox="0 0 663.62 301.84">
  <defs>
    <style>
      .cls-1 {
        fill: #fff;
      }
    </style>
  </defs>
  <g>
    <path class="cls-1" d="M844.21,671.34a8.23,8.23,0,0,1-5.58-2.09L514.68,375c-1.39-1.26-2-2.45-1.7-3.25s1.57-1.26,3.45-1.26h111.7a23.34,23.34,0,0,1,13.59,5.25L838,554a9.51,9.51,0,0,0,12.52,0l196.24-178.24a23.31,23.31,0,0,1,13.58-5.25H1172c1.88,0,3.13.46,3.44,1.26s-.31,2-1.7,3.25L849.8,669.25A8.27,8.27,0,0,1,844.21,671.34Z" transform="translate(-512.4 -370)"/>
    <path d="M1172,371c1.93,0,2.81.51,3,.94s-.15,1.4-1.57,2.7l-324,294.24a8,8,0,0,1-10.5,0L515,374.64c-1.43-1.3-1.74-2.27-1.57-2.7s1-.94,3-.94h111.7a23.11,23.11,0,0,1,13.25,5.12L837.62,554.36a10,10,0,0,0,13.19,0L1047,376.12a23.14,23.14,0,0,1,13.25-5.12H1172m0-1H1060.29a24,24,0,0,0-13.92,5.38L850.13,553.62a9,9,0,0,1-11.84,0L642.06,375.38A24,24,0,0,0,628.13,370H516.43c-4.4,0-5.34,2.42-2.08,5.38L838.29,669.62a9,9,0,0,0,11.84,0l323.95-294.24c3.26-3,2.32-5.38-2.08-5.38Z" transform="translate(-512.4 -370)"/>
  </g>
</svg>
